<svg width="30" height="36" viewBox="0 0 30 36" fill="none" xmlns="http://www.w3.org/2000/svg">
<path d="M15 18C17.3206 18 19.5462 17.0781 21.1872 15.4372C22.8281 13.7962 23.75 11.5706 23.75 9.25C23.75 6.92936 22.8281 4.70376 21.1872 3.06282C19.5462 1.42187 17.3206 0.5 15 0.5C12.6794 0.5 10.4538 1.42187 8.81282 3.06282C7.17187 4.70376 6.25 6.92936 6.25 9.25C6.25 11.5706 7.17187 13.7962 8.81282 15.4372C10.4538 17.0781 12.6794 18 15 18ZM4.375 20.5C3.21468 20.5 2.10188 20.9609 1.28141 21.7814C0.460936 22.6019 0 23.7147 0 24.875V25.5C0 28.4912 1.90375 31.0212 4.60625 32.7412C7.32375 34.4712 11.0025 35.5 15 35.5C18.9975 35.5 22.675 34.4712 25.3938 32.7412C28.0963 31.0212 30 28.4912 30 25.5V24.875C30 23.7147 29.5391 22.6019 28.7186 21.7814C27.8981 20.9609 26.7853 20.5 25.625 20.5H4.375Z" fill="#027C56"/>
</svg>
