<svg width="31" height="36" viewBox="0 0 31 36" fill="none" xmlns="http://www.w3.org/2000/svg">
<path d="M22.3334 18.9998C17.7334 18.9998 14 22.7332 14 27.3332C14 31.9332 17.7334 35.6665 22.3334 35.6665C26.9334 35.6665 30.6667 31.9332 30.6667 27.3332C30.6667 22.7332 26.9334 18.9998 22.3334 18.9998ZM25.0834 31.2498L21.5 27.6665V22.3332H23.1667V26.9832L26.25 30.0665L25.0834 31.2498ZM24 3.99984H18.7C18 2.0665 16.1667 0.666504 14 0.666504C11.8334 0.666504 10 2.0665 9.30002 3.99984H4.00002C2.16669 3.99984 0.666687 5.49984 0.666687 7.33317V32.3332C0.666687 34.1665 2.16669 35.6665 4.00002 35.6665H14.1834C13.1973 34.7094 12.3952 33.5796 11.8167 32.3332H4.00002V7.33317H7.33335V12.3332H20.6667V7.33317H24V15.7998C25.1834 15.9665 26.3 16.3165 27.3334 16.7998V7.33317C27.3334 5.49984 25.8334 3.99984 24 3.99984ZM14 7.33317C13.0834 7.33317 12.3334 6.58317 12.3334 5.6665C12.3334 4.74984 13.0834 3.99984 14 3.99984C14.9167 3.99984 15.6667 4.74984 15.6667 5.6665C15.6667 6.58317 14.9167 7.33317 14 7.33317Z" fill="#027C56"/>
</svg>
