<svg width="31" height="31" viewBox="0 0 31 31" fill="none" xmlns="http://www.w3.org/2000/svg">
<path fill-rule="evenodd" clip-rule="evenodd" d="M1.25 1.62477H13.125C13.4702 1.62477 13.75 1.90457 13.75 2.24977V14.1248C13.75 14.47 13.4702 14.7498 13.125 14.7498H1.25C0.904805 14.7498 0.625 14.47 0.625 14.1248V2.24977C0.625 1.90457 0.904805 1.62477 1.25 1.62477ZM23.2935 0.635195L30.3646 7.70629C30.6086 7.95035 30.6086 8.34605 30.3646 8.59016L23.2935 15.6612C23.0494 15.9053 22.6537 15.9053 22.4096 15.6612L15.3386 8.59012C15.0945 8.34605 15.0945 7.95035 15.3386 7.70625L22.4096 0.635195C22.6537 0.391133 23.0494 0.391133 23.2935 0.635195ZM1.25 17.2498H13.125C13.4702 17.2498 13.75 17.5296 13.75 17.8748V29.7498C13.75 30.095 13.4702 30.3748 13.125 30.3748H1.25C0.904805 30.3748 0.625 30.095 0.625 29.7498V17.8748C0.625 17.5296 0.904805 17.2498 1.25 17.2498ZM16.875 17.2498H28.75C29.0952 17.2498 29.375 17.5296 29.375 17.8748V29.7498C29.375 30.095 29.0952 30.3748 28.75 30.3748H16.875C16.5298 30.3748 16.25 30.095 16.25 29.7498V17.8748C16.25 17.5296 16.5298 17.2498 16.875 17.2498Z" fill="#027C56"/>
</svg>
