<svg width="40" height="40" viewBox="0 0 40 40" fill="none" xmlns="http://www.w3.org/2000/svg">
<path d="M28.3334 19.9998C23.7334 19.9998 20 23.7332 20 28.3332C20 32.9332 23.7334 36.6665 28.3334 36.6665C32.9334 36.6665 36.6667 32.9332 36.6667 28.3332C36.6667 23.7332 32.9334 19.9998 28.3334 19.9998ZM31.0834 32.2498L27.5 28.6665V23.3332H29.1667V27.9832L32.25 31.0665L31.0834 32.2498ZM30 4.99984H24.7C24 3.0665 22.1667 1.6665 20 1.6665C17.8334 1.6665 16 3.0665 15.3 4.99984H10C8.16669 4.99984 6.66669 6.49984 6.66669 8.33317V33.3332C6.66669 35.1665 8.16669 36.6665 10 36.6665H20.1834C19.1973 35.7094 18.3952 34.5796 17.8167 33.3332H10V8.33317H13.3334V13.3332H26.6667V8.33317H30V16.7998C31.1834 16.9665 32.3 17.3165 33.3334 17.7998V8.33317C33.3334 6.49984 31.8334 4.99984 30 4.99984ZM20 8.33317C19.0834 8.33317 18.3334 7.58317 18.3334 6.6665C18.3334 5.74984 19.0834 4.99984 20 4.99984C20.9167 4.99984 21.6667 5.74984 21.6667 6.6665C21.6667 7.58317 20.9167 8.33317 20 8.33317Z" fill="#027C56"/>
<circle cx="28.5" cy="28.4998" r="5.7" fill="#D9D9D9"/>
<path fill-rule="evenodd" clip-rule="evenodd" d="M28.5 35.625C29.4357 35.625 30.3622 35.4407 31.2266 35.0826C32.0911 34.7246 32.8765 34.1998 33.5381 33.5381C34.1998 32.8765 34.7246 32.0911 35.0826 31.2266C35.4407 30.3622 35.625 29.4357 35.625 28.5C35.625 27.5643 35.4407 26.6378 35.0826 25.7734C34.7246 24.9089 34.1998 24.1235 33.5381 23.4619C32.8765 22.8002 32.0911 22.2754 31.2266 21.9174C30.3622 21.5593 29.4357 21.375 28.5 21.375C26.6103 21.375 24.7981 22.1257 23.4619 23.4619C22.1257 24.7981 21.375 26.6103 21.375 28.5C21.375 30.3897 22.1257 32.2019 23.4619 33.5381C24.7981 34.8743 26.6103 35.625 28.5 35.625ZM28.3163 31.3817L32.2747 26.6317L31.0587 25.6183L27.6545 29.7025L25.893 27.9403L24.7736 29.0597L27.1486 31.4347L27.7614 32.0475L28.3163 31.3817Z" fill="#027C56"/>
</svg>
